<svg version="1.1" xmlns="http://www.w3.org/2000/svg" xmlns:xlink="http://www.w3.org/1999/xlink" width="232.38049" height="249.0366" viewBox="0,0,232.38049,249.0366"><g transform="translate(-123.80975,-55.4817)"><g data-paper-data="{&quot;isPaintingLayer&quot;:true}" fill-rule="nonzero" stroke-linejoin="miter" stroke-miterlimit="10" stroke-dasharray="" stroke-dashoffset="0" style="mix-blend-mode: normal"><path d="M307.66801,201.11279c-10.26889,2.03849 -33.60248,1.17142 -33.60248,1.17142v-18.63401c0,0 20.28585,0.85226 30.15407,-1.10668c9.99654,-1.98442 29.44519,-10.72443 29.44519,-10.72443v18.63401c0,0 -16.45229,8.76501 -25.99678,10.6597z" data-paper-data="{&quot;index&quot;:null}" fill="#00ff34" stroke="#000000" stroke-width="2.5" stroke-linecap="butt"/><path d="M149.12758,187.81931v-18.63401c0,0 19.44865,8.74001 29.44519,10.72443c9.86821,1.95895 30.15406,1.10668 30.15406,1.10668v18.63401c0,0 -23.33359,0.86707 -33.60248,-1.17142c-9.5445,-1.89469 -25.99678,-10.6597 -25.99678,-10.6597z" fill="#00ff34" stroke="#000000" stroke-width="2.5" stroke-linecap="butt"/><path d="M255.0999,267.64591c-5.55783,-3.21502 0.07267,-28.41192 0.07267,-28.41192l10.31032,0.65238c0,0 3.10684,16.47931 4.63569,17.02648c5.07811,1.81745 10.267,-6.59821 15.06451,-4.71122c4.81436,1.89362 9.7371,10.7523 9.7371,15.44428c0,7.33801 -34.28318,3.20303 -39.82028,0z" data-paper-data="{&quot;index&quot;:null}" fill="#00ff15" stroke="#000000" stroke-width="2.5" stroke-linecap="butt"/><path d="M198.54931,267.37836c0,-4.69198 4.92275,-13.55066 9.73711,-15.44428c4.79751,-1.88698 9.9864,6.52868 15.06451,4.71123c1.52884,-0.54717 4.63568,-17.02648 4.63568,-17.02648l10.31033,-0.65239c0,0 5.63049,25.1969 0.07266,28.41192c-5.5371,3.20303 -39.82029,7.33801 -39.82029,0z" fill="#00ff15" stroke="#000000" stroke-width="2.5" stroke-linecap="butt"/><g stroke="#000000" stroke-width="2.5"><g stroke-linecap="butt"><path d="M287.49121,201.6225c0,24.47213 -19.18043,44.3107 -42.84068,44.3107c-23.66026,0 -42.84067,-19.83857 -42.84067,-44.3107c0,-24.47213 19.18042,-44.3107 42.84068,-44.3107c23.66025,0 42.84068,19.83857 42.84068,44.3107z" fill="#797979"/><path d="M260.91036,242.31703c-0.38601,0.06141 -1.05119,-28.93224 -2.26195,-38.28864c-0.56446,-4.362 0.89729,-40.95984 0.83219,-41.37167c3.41037,0.08687 13.38675,5.10688 18.96632,13.339c6.20472,9.15447 7.86671,21.78425 7.86671,25.54662c0,5.56535 -1.81238,17.31508 -6.17287,25.1043c-3.87157,6.91585 -16.45205,12.09833 -19.23039,15.67039z" data-paper-data="{&quot;index&quot;:null}" fill="#0400ff"/><path d="M209.00041,225.55655c-4.36049,-7.78922 -6.17287,-19.53896 -6.17287,-25.10431c0,-3.76237 1.66198,-16.39214 7.8667,-25.54662c5.57958,-8.23212 15.55595,-13.25213 18.96632,-13.339c-0.0651,0.41183 1.39666,37.00967 0.8322,41.37167c-1.21076,9.3564 -1.87594,38.35006 -2.26196,38.28865c-2.77834,-3.57206 -15.35883,-8.75454 -19.2304,-15.67039z" data-paper-data="{&quot;index&quot;:null}" fill="#0400ff"/></g><path d="M227.11636,202.52849l-8.21112,-6.68516l-7.77513,5.74051l2.32528,-7.99312l-5.23186,-8.71977l6.75782,2.97926l3.19725,-10.02774l2.76126,8.42911l5.88585,-2.76126l-3.70591,8.35645z" fill="#fcff54" stroke-linecap="round"/></g><path d="M210.08134,297.38097c0,-0.75 0.75,-0.75 0.75,-0.75l0.7455,0.01353c4.13099,-1.57344 9.44537,0.99808 13.75367,0.29578c2.13918,-0.34871 4.85375,-3.18066 3.61332,-5.37953c-2.59993,-1.36516 -4.64424,-3.65352 -7.21104,-5.04565c-0.48227,-0.26157 -0.98558,-0.47636 -1.50603,-0.65062c-0.43975,0.16129 -0.90688,0.32105 -1.41818,0.52618c-1.37991,0.5536 -2.37716,1.63555 -3.67846,2.21026c-1.91659,0.84645 -5.69058,0.35231 -7.76209,0.2105c-0.85241,-0.05836 -5.46465,-0.87354 -5.55879,-2.1062c-0.13791,-1.80567 2.02536,-1.64256 2.9019,-1.74841c4.80648,-0.45773 10.62474,-1.98725 15.49742,-0.63634c0.53936,-0.21298 1.04763,-0.4911 1.54968,-0.98381c0.25288,-0.50801 0.39828,-1.13149 0.44744,-1.79546c-1.12383,0.07295 -2.30105,0.12115 -3.5422,0.17092c-2.13359,0.08556 -4.45391,0.54183 -6.47034,-0.26857c-0.63311,-0.62268 -1.33845,-1.21869 -1.83062,-1.97398c-3.5621,-5.46645 6.55773,-4.52927 8.88017,-3.97994c0.8269,0.19558 2.42529,0.06757 3.0685,0.81025c0.73119,0.84428 1.13054,2.56926 1.30604,3.8941c2.49621,-0.05388 5.00514,-0.34718 6.91916,-1.63275c1.64653,-1.10591 2.79737,-2.44411 4.29046,-3.62774c-0.02726,-1.46121 -3.94599,-1.87303 -5.13969,-2.02099c-5.39383,-0.66854 -11.72974,-0.97849 -17.10574,-0.08074c0,0 -0.73979,0.1233 -0.86309,-0.61649c-0.1233,-0.7398 0.6165,-0.8631 0.6165,-0.8631c5.51057,-0.91672 12.01065,-0.62462 17.53839,0.07191c2.89636,0.36496 6.09869,0.7832 6.35753,4.0377c-3.82706,4.31126 -7.67995,5.50655 -12.50882,5.96062c0.01448,1.04501 -0.25422,1.80884 -0.74681,2.79132c-0.31506,0.31877 -0.62366,0.57157 -0.93391,0.78104c0.12348,0.058 0.24609,0.11844 0.36781,0.18141c2.71902,1.4067 4.91836,3.76278 7.57786,5.30658c1.91167,3.09954 -0.43711,6.41197 -3.50412,7.59757c-4.45908,1.72373 -10.27712,-1.79896 -14.62224,0.03713l-1.02917,0.01353c0,0 -0.75,0 -0.75,-0.75zM222.18143,280.20383c-0.11253,-1.06736 -0.44088,-2.11363 -0.94237,-2.85489c-0.42974,-0.6352 -4.39508,-0.92591 -5.1125,-0.9582c-1.09499,-0.04929 -3.94499,-0.42777 -4.65144,0.82376c-0.68146,1.20725 0.82155,2.23884 1.54375,2.97678c1.59554,0.63167 3.90962,0.08921 5.5845,0.02204c1.1064,-0.04438 2.32555,-0.01476 3.57807,-0.00948zM217.58262,285.31039c-4.17665,-0.43933 -8.94342,0.77907 -12.72927,1.13965c-3.91075,0.2328 3.86954,0.86393 5.06954,0.86393c1.16969,0 3.51227,0.43274 4.59566,-0.08272c1.08694,-0.51715 1.97925,-1.3395 3.06406,-1.92085z" fill="#a7a7a7" stroke="none" stroke-width="0.5" stroke-linecap="butt"/><path d="M197.965,303.14864v-10.64801h39.93002v10.64801z" fill="#00ff15" stroke="#000000" stroke-width="2.5" stroke-linecap="butt"/><path d="M285.19126,298.25063l-1.02917,-0.01353c-4.34512,-1.83609 -10.16317,1.6866 -14.62224,-0.03713c-3.06701,-1.18561 -5.41579,-4.49804 -3.50412,-7.59757c2.65949,-1.5438 4.85883,-3.89987 7.57786,-5.30658c0.12171,-0.06297 0.24433,-0.12341 0.36781,-0.18141c-0.31025,-0.20947 -0.61885,-0.46227 -0.93391,-0.78104c-0.49259,-0.98248 -0.76129,-1.74631 -0.74682,-2.79132c-4.82887,-0.45408 -8.68176,-1.64936 -12.50882,-5.96062c0.25884,-3.2545 3.46118,-3.67274 6.35754,-4.0377c5.52774,-0.69653 12.02782,-0.98863 17.53839,-0.07191c0,0 0.7398,0.1233 0.6165,0.8631c-0.1233,0.7398 -0.86309,0.61649 -0.86309,0.61649c-5.37601,-0.89775 -11.71191,-0.58781 -17.10574,0.08074c-1.19371,0.14796 -5.11243,0.55978 -5.1397,2.02099c1.49309,1.18363 2.64393,2.52183 4.29046,3.62774c1.91402,1.28557 4.42296,1.57887 6.91917,1.63275c0.1755,-1.32484 0.57485,-3.04982 1.30604,-3.8941c0.64321,-0.74268 2.2416,-0.61467 3.06849,-0.81025c2.32245,-0.54933 12.44227,-1.48651 8.88017,3.97994c-0.49217,0.75529 -1.19751,1.3513 -1.83062,1.97398c-2.01643,0.81041 -4.33676,0.35413 -6.47034,0.26857c-1.24115,-0.04977 -2.41837,-0.09796 -3.5422,-0.17092c0.04917,0.66397 0.19456,1.28745 0.44744,1.79546c0.50205,0.49271 1.01033,0.77082 1.54969,0.9838c4.87268,-1.35091 10.69095,0.17861 15.49742,0.63634c0.87655,0.10585 3.03981,-0.05726 2.9019,1.74841c-0.09415,1.23266 -4.70639,2.04784 -5.55879,2.1062c-2.07151,0.14182 -5.84551,0.63595 -7.76209,-0.2105c-1.3013,-0.57471 -2.29854,-1.65666 -3.67845,-2.21026c-0.5113,-0.20513 -0.97843,-0.36488 -1.41818,-0.52618c-0.52046,0.17426 -1.02377,0.38905 -1.50603,0.65062c-2.5668,1.39213 -4.61111,3.6805 -7.21104,5.04565c-1.24043,2.19887 1.47414,5.03082 3.61332,5.37953c4.30831,0.7023 9.62269,-1.86922 13.75367,-0.29578l0.7455,-0.01353c0,0 0.75,0 0.75,0.75c0,0.75 -0.75,0.75 -0.75,0.75zM277.41923,280.33297c1.67488,0.06717 3.98895,0.60963 5.5845,-0.02204c0.7222,-0.73793 2.22521,-1.76952 1.54375,-2.97678c-0.70645,-1.25153 -3.55645,-0.87305 -4.65144,-0.82376c-0.71742,0.03229 -4.68276,0.323 -5.1125,0.9582c-0.5015,0.74127 -0.82984,1.78753 -0.94237,2.85489c1.25252,-0.00528 2.47166,-0.0349 3.57806,0.00948zM281.50404,287.3509c1.08339,0.51547 3.42597,0.08272 4.59566,0.08272c1.2,0 8.9803,-0.63113 5.06955,-0.86393c-3.78585,-0.36058 -8.55262,-1.57898 -12.72927,-1.13965c1.08481,0.58135 1.97713,1.4037 3.06406,1.92085z" data-paper-data="{&quot;index&quot;:null}" fill="#a7a7a7" stroke="none" stroke-width="0.5" stroke-linecap="butt"/><path d="M258.12758,303.2683v-10.64801h39.93002v10.64801z" data-paper-data="{&quot;index&quot;:null}" fill="#00ff15" stroke="#000000" stroke-width="2.5" stroke-linecap="butt"/><g stroke-linecap="butt"><g fill="#ffb146" stroke="#000000" stroke-width="2.5"><path d="M141.93817,181.1118c4.61429,-0.06421 8.38209,1.83682 8.41562,4.24605c0.03352,2.40923 -3.67993,4.41435 -8.29422,4.47856c-4.61429,0.06421 -8.38209,-1.83682 -8.41562,-4.24605c-0.03352,-2.40923 3.67993,-4.41435 8.29422,-4.47856z"/><path d="M138.23267,164.59819c7.3502,-0.10227 13.36952,4.1844 13.44452,9.57454c0.075,5.39015 -5.82272,9.84264 -13.17292,9.94491c-7.3502,0.10227 -13.36952,-4.1844 -13.44452,-9.57454c-0.075,-5.39015 5.82272,-9.84264 13.17292,-9.94491z"/><path d="M152.32589,162.33145c2.40923,-0.03352 4.45995,6.95711 4.58041,15.61401c0.12046,8.65691 -1.73497,15.70189 -4.1442,15.73541c-2.40923,0.03352 -4.45995,-6.95711 -4.58041,-15.61401c-0.12046,-8.65691 1.73497,-15.70189 4.1442,-15.73541z"/></g><path d="M137.35305,175.68907c-1.54981,0.01336 -6.6956,0.83624 -9.01557,0.56916c-1.31875,-0.15182 -2.50833,-0.58138 -2.53454,-2.46498c-0.03172,-2.27986 3.29797,-2.96513 5.12055,-3.0152c2.85709,-0.07849 12.53024,-0.50926 15.37217,2.52897c0.09789,0.10465 0.18699,0.23317 0.26542,0.37939c0.23513,0.37488 0.37368,0.81693 0.38029,1.29174c0.00139,0.09964 -0.00308,0.198 -0.01307,0.29475c-0.00142,1.15115 -0.55418,2.29182 -2.03226,2.19879c-0.13627,0.02502 -0.27647,0.03901 -0.41965,0.041c-0.408,0.00568 -0.79453,-0.08671 -1.13714,-0.25532c-1.97718,-0.55177 -4.04613,-1.58503 -5.98621,-1.5683z" fill="#ff0000" stroke="none" stroke-width="0.5"/><path d="M148.90637,175.98613c0.76328,-1.37996 1.90078,-2.15183 3.08157,-2.46675c2.86737,-0.76473 5.99002,1.16512 4.62914,3.62551c-0.84808,1.53328 -5.7007,2.24785 -6.44969,0.97845z" fill="#ff0000" stroke="none" stroke-width="0.5"/></g><g data-paper-data="{&quot;index&quot;:null}" stroke-linecap="butt"><g fill="#ffb146" stroke="#000000" stroke-width="2.5"><path d="M346.35603,190.14669c-0.03353,2.40923 -3.80132,4.31025 -8.41562,4.24605c-4.6143,-0.0642 -8.32775,-2.06932 -8.29422,-4.47856c0.03352,-2.40923 3.80132,-4.31025 8.41562,-4.24605c4.61429,0.0642 8.32774,2.06932 8.29422,4.47856z"/><path d="M354.94024,179.09944c-0.075,5.39015 -6.09432,9.67682 -13.44452,9.57455c-7.35021,-0.10227 -13.24792,-4.55476 -13.17292,-9.94491c0.075,-5.39015 6.09431,-9.67682 13.44452,-9.57454c7.35021,0.10227 13.24792,4.55476 13.17292,9.94491z"/><path d="M331.81829,182.6232c-0.12045,8.6569 -2.17117,15.64753 -4.5804,15.61401c-2.40923,-0.03353 -4.26466,-7.07851 -4.1442,-15.73541c0.12045,-8.6569 2.17118,-15.64754 4.58041,-15.61401c2.40924,0.03352 4.26465,7.07851 4.1442,15.73541z"/></g><path d="M336.66072,181.8137c-0.34261,0.16861 -0.72913,0.26099 -1.13713,0.25532c-0.14318,-0.00199 -0.28337,-0.01598 -0.41965,-0.041c-1.47808,0.09303 -2.03084,-1.04763 -2.03226,-2.19878c-0.01,-0.09676 -0.01445,-0.19512 -0.01307,-0.29476c0.0066,-0.47481 0.14516,-0.91686 0.38028,-1.29174c0.07843,-0.14622 0.16753,-0.27474 0.26542,-0.37939c2.84193,-3.03823 12.51508,-2.60746 15.37217,-2.52897c1.82258,0.05006 5.15228,0.73534 5.12055,3.0152c-0.02621,1.88359 -1.21579,2.31315 -2.53454,2.46497c-2.31997,0.26709 -7.46577,-0.55579 -9.01557,-0.56915c-1.94007,-0.01673 -4.00903,1.01654 -5.98621,1.56831z" fill="#ff0000" stroke="none" stroke-width="0.5"/><path d="M329.83259,182.67967c-0.74899,1.2694 -5.60161,0.55483 -6.44969,-0.97844c-1.36088,-2.46039 1.76177,-4.39024 4.62914,-3.62551c1.18079,0.31492 2.3183,1.0868 3.08157,2.46675z" fill="#ff0000" stroke="none" stroke-width="0.5"/></g><g stroke-linecap="butt"><path d="M225.04755,137.99149v-40.74064h35.49057v40.74065z" fill="#a7a7a7" stroke="#000000" stroke-width="2.5"/><path d="M222.94752,166.70671c-4.54817,-12.2967 -7.62597,-27.01136 0,-40.63655c8.68787,-7.89832 39.00051,-4.07197 43.8907,0.84001c6.2346,6.26238 3.34462,31.87987 -0.21001,39.79654c-5.19203,11.56339 -39.3393,11.73763 -43.68069,0z" fill="#00ff34" stroke="#000000" stroke-width="2.5"/><path d="M229.14266,110.83856c0,-2.79594 2.26656,-5.0625 5.0625,-5.0625c2.79594,0 5.0625,2.26656 5.0625,5.0625c0,2.79594 -2.26656,5.0625 -5.0625,5.0625c-2.79594,0 -5.0625,-2.26656 -5.0625,-5.0625z" fill="#000000" stroke="none" stroke-width="0.5"/><path d="M223.7528,97.41898c-4.44412,-0.8665 -2.78766,-5.68479 -0.22971,-8.60707c2.55794,-2.92228 8.63002,2.86683 10.49436,-3.11962c0.1346,-0.43221 -2.85929,-4.51964 1.43652,-5.50762c5.62324,-1.29327 18.88035,0.45576 18.9869,-0.22485c0.19425,-1.24071 0.99762,-4.19008 -1.49829,-4.77598c-4.63397,-1.08778 -14.6134,0.66991 -18.49815,-0.72966c-1.18304,-0.42622 2.0462,7.75373 1.365,7.06664c-5.53714,-5.58504 -0.44872,-24.74664 1.14277,-24.78912c1.30486,-0.03482 16.0191,-1.46672 17.49775,1.52747c0.7636,1.54624 -2.34647,23.52051 -0.27197,26.83072c2.34131,3.73593 5.93117,-0.12017 7.97196,2.6911c2.04079,2.81127 3.48883,7.78901 0.22971,8.60707c-3.25912,0.81806 -23.82558,3.91684 -38.62686,1.03093z" fill="#000000" stroke="#000000" stroke-width="2.5"/><path d="M240.7978,142.52794c0,4.4073 -3.4788,7.98013 -7.77012,7.98013c-4.29132,0 -7.77013,-3.57283 -7.77013,-7.98013c0,-4.4073 3.4788,-7.98013 7.77013,-7.98013c4.29132,0 7.77012,3.57283 7.77012,7.98013z" fill="#ffffff" stroke="#000000" stroke-width="2.5"/><path d="M263.22808,142.27786c0,4.4073 -3.4788,7.98012 -7.77012,7.98012c-4.29132,0 -7.77012,-3.57282 -7.77012,-7.98012c0,-4.4073 3.4788,-7.98013 7.77012,-7.98013c4.29132,0 7.77012,3.57283 7.77012,7.98013z" fill="#ffffff" stroke="#000000" stroke-width="2.5"/><path d="M230.10767,143.36795c0,-1.38071 1.11929,-2.5 2.5,-2.5c1.38071,0 2.5,1.11929 2.5,2.5c0,1.38071 -1.11929,2.5 -2.5,2.5c-1.38071,0 -2.5,-1.11929 -2.5,-2.5z" fill="#000000" stroke="none" stroke-width="0.5"/><path d="M252.15802,142.94795c0,-1.38071 1.11929,-2.5 2.5,-2.5c1.38071,0 2.5,1.11929 2.5,2.5c0,1.38071 -1.11929,2.5 -2.5,2.5c-1.38071,0 -2.5,-1.11929 -2.5,-2.5z" fill="#000000" stroke="none" stroke-width="0.5"/><path d="M230.50764,158.48819c1.35495,-1.02282 24.2151,-1.57997 26.04041,0c1.79241,1.55149 -6.27814,10.03059 -12.81564,10.03059c-6.5375,0 -14.61367,-8.98215 -13.22477,-10.03059z" fill="#000000" stroke="#000000" stroke-width="2.5"/><path d="M245.64266,110.83856c0,-2.79594 2.26656,-5.0625 5.0625,-5.0625c2.79594,0 5.0625,2.26656 5.0625,5.0625c0,2.79594 -2.26656,5.0625 -5.0625,5.0625c-2.79594,0 -5.0625,-2.26656 -5.0625,-5.0625z" fill="#000000" stroke="none" stroke-width="0.5"/></g></g></g></svg>